<svg width="280" height="122" viewBox="0 0 280 122" fill="none" xmlns="http://www.w3.org/2000/svg">
<mask id="mask0_0_1" style="mask-type:luminance" maskUnits="userSpaceOnUse" x="98" y="0" width="76" height="75">
<path d="M174 0H98V74.7333H174V0Z" fill="white"/>
</mask>
<g mask="url(#mask0_0_1)">
<path d="M167.924 42.0016C167.669 49.1872 164.839 56.1135 159.845 61.7735C154.851 67.4334 147.955 71.5323 140.157 73.4742C132.359 75.4162 124.067 75.1 116.486 72.5718C108.904 70.0435 102.429 65.4349 98 59.4158L98.011 59.4051L98.0592 59.3837C98.0712 59.3837 98.0712 59.373 98.0832 59.373C98.0953 59.3517 98.1073 59.3517 98.1194 59.341L110.247 52.3076L161.741 22.4257V22.4364C161.873 22.6064 161.992 22.7765 162.112 22.9572C162.4 23.3507 162.664 23.7585 162.927 24.1707C163.179 24.5535 163.418 24.9363 163.646 25.3281C163.994 25.9023 164.318 26.4979 164.605 27.0944C164.749 27.3597 164.881 27.6268 165.001 27.8957C165.192 28.2892 165.36 28.672 165.527 29.0762C165.66 29.3638 165.767 29.6611 165.875 29.9594C165.976 30.1829 166.055 30.4045 166.139 30.6396C166.462 31.5441 166.75 32.4593 166.99 33.395C167.724 36.2152 168.039 39.1087 167.924 42.0016Z" fill="url(#paint0_linear_0_1)"/>
<g style="mix-blend-mode:multiply" opacity="0.16">
<path d="M166.99 33.395L98 59.4157L161.741 22.4274C164.209 25.7786 165.986 29.4921 166.99 33.395Z" fill="black"/>
</g>
<path d="M174 15.321L173.988 15.3318C173.976 15.3318 173.964 15.3531 173.941 15.3531C173.927 15.3727 173.906 15.3876 173.881 15.3958L161.746 22.4381L110.25 52.3093C110.119 52.1313 109.998 51.9585 109.879 51.7751C104.618 44.3754 102.815 35.4455 104.854 26.8842C105.123 25.7534 105.455 24.6353 105.849 23.534C105.859 23.5168 105.867 23.4989 105.873 23.4807C105.884 23.4295 105.9 23.3794 105.921 23.3311C108.117 17.3405 112.156 12.0143 117.582 7.95401C123.008 3.89372 129.605 1.26117 136.627 0.353672C143.65 -0.553825 150.818 0.299904 157.323 2.81842C163.828 5.33695 169.409 9.41988 173.438 14.6061C173.455 14.6231 173.47 14.641 173.485 14.6595C173.666 14.8741 173.835 15.0976 174 15.321Z" fill="url(#paint1_linear_0_1)"/>
<g style="mix-blend-mode:multiply" opacity="0.25">
<path d="M162.112 22.9589C158.72 25.0867 154.778 27.4994 150.523 30.0546C148.317 31.374 146.054 32.7566 143.718 34.1188C141.381 35.4809 139.019 36.8734 136.659 38.2569C134.274 39.6288 131.889 40.991 129.538 42.3416C127.189 43.6717 124.865 44.9804 122.624 46.2455C118.118 48.7668 113.899 51.0861 110.244 53.0331C106.614 55.0007 103.525 56.5649 101.388 57.6921C99.507 58.6714 98.3206 59.2563 98.0568 59.3836C98.071 59.3639 98.0922 59.3489 98.117 59.3409L161.739 22.4274C161.872 22.5974 161.992 22.7782 162.112 22.9589Z" fill="black"/>
</g>
<g style="mix-blend-mode:screen" opacity="0.7">
<path d="M173.941 15.3531C173.926 15.3726 173.905 15.3875 173.88 15.3958L110.249 52.3093C110.118 52.1313 109.998 51.9586 109.878 51.7752C113.27 49.658 117.225 47.2346 121.478 44.6795C123.684 43.3601 125.96 41.9988 128.285 40.6153C130.61 39.254 132.982 37.8607 135.343 36.4772C137.728 35.1052 140.113 33.7431 142.464 32.3925C144.815 31.0419 147.138 29.7545 149.378 28.4885C153.872 25.9672 158.103 23.648 161.757 21.6902C165.389 19.7227 168.477 18.1691 170.614 17.042C172.49 16.0653 173.677 15.4804 173.941 15.3531Z" fill="white"/>
</g>
<g style="mix-blend-mode:screen" opacity="0.25">
<path d="M163.155 40.8306C163.163 42.8974 162.922 44.9589 162.436 46.9799C161.549 50.781 159.825 54.3891 157.363 57.5971C154.901 60.8052 151.75 63.55 148.09 65.6741C144.43 67.7983 140.334 69.2598 136.036 69.9749C131.738 70.6899 127.323 70.6445 123.045 69.841C116.013 68.5586 109.646 65.2713 104.914 60.4795L105.262 60.2774L163.155 40.8306Z" fill="white"/>
</g>
<g style="mix-blend-mode:screen" opacity="0.25">
<path d="M167.086 14.2572L166.403 14.6507L109.456 28.1503C109.48 28.023 109.503 27.8832 109.539 27.7568C110.429 23.955 112.156 20.3467 114.62 17.1386C117.085 13.9305 120.238 11.1858 123.9 9.06189C127.562 6.93795 131.66 5.47664 135.959 4.76173C140.258 4.04681 144.675 4.09237 148.954 4.89575C155.984 6.18325 162.349 9.46974 167.086 14.2572Z" fill="white"/>
</g>
<g style="mix-blend-mode:multiply" opacity="0.16">
<path d="M167.924 42.0015C167.669 49.1873 164.839 56.1135 159.845 61.7734C154.851 67.4334 147.955 71.5323 140.157 73.4743C132.359 75.4162 124.067 75.1 116.486 72.5719C108.904 70.0436 102.429 65.435 98 59.4158C99.2121 60.833 100.521 62.1831 101.918 63.4586C104.727 65.9435 107.933 68.0476 111.433 69.7031C114.899 71.3443 118.63 72.4997 122.494 73.1281L125.395 73.4896C126.364 73.6392 127.347 73.5964 128.318 73.6596L129.78 73.713L131.243 73.6498C132.213 73.6304 133.181 73.5627 134.142 73.4469L137.03 73.0533L139.859 72.4159C140.818 72.2378 141.716 71.8728 142.639 71.6146C143.563 71.3429 144.465 71.0123 145.336 70.6255C147.109 69.9103 148.819 69.077 150.451 68.1327L152.846 66.6325C153.602 66.0903 154.333 65.5161 155.076 64.9516C155.81 64.3782 156.51 63.771 157.173 63.1328L158.204 62.1971L159.115 61.1866C160.36 59.8369 161.497 58.4113 162.518 56.9203L163.908 54.601C164.399 53.8354 164.687 53.0056 165.094 52.2079C165.286 51.8037 165.495 51.4066 165.67 50.9953L166.113 49.7186C166.389 48.8675 166.76 48.0057 166.964 47.1653C167.405 45.4635 167.726 43.7389 167.924 42.0015Z" fill="black"/>
</g>
<g style="mix-blend-mode:screen" opacity="0.7">
<path d="M173.434 14.6078C173.333 14.5019 173.182 14.3407 172.978 14.1297C172.606 13.6935 171.975 13.0979 171.216 12.3215C169.042 10.2614 166.605 8.43342 163.954 6.87474C162.206 5.83663 160.367 4.92585 158.454 4.15131C156.33 3.3057 154.129 2.62215 151.875 2.10807C151.299 1.97008 150.652 1.86413 150.041 1.73593C149.478 1.6193 148.831 1.57658 148.235 1.48131C147.612 1.40653 147.001 1.33174 146.378 1.24717C145.743 1.18306 145.12 1.17237 144.484 1.12964C143.85 1.10827 143.215 1.05575 142.579 1.04062L140.65 1.10383C139.365 1.13608 138.084 1.24284 136.815 1.42345C136.178 1.48211 135.545 1.57788 134.922 1.71012L133.028 2.06624C131.793 2.34223 130.572 2.72595 129.361 3.05536C128.199 3.50051 127.001 3.86375 125.886 4.35341C125.335 4.59825 124.783 4.85286 124.232 5.09769L123.405 5.46984L122.639 5.89542C121.62 6.48123 120.577 6.99136 119.654 7.64039C117.848 8.80115 116.16 10.1003 114.609 11.5229C113.881 12.1526 113.197 12.8207 112.56 13.5234C111.949 14.2036 111.362 14.8633 110.81 15.4821C110.309 16.1525 109.84 16.7695 109.384 17.3651C108.51 18.5465 107.922 19.6736 107.335 20.5701C106.508 22.2297 105.993 23.2615 105.873 23.485C105.866 23.5032 105.858 23.5211 105.849 23.5384C105.849 23.5384 105.873 23.4636 105.921 23.3354C108.117 17.3449 112.156 12.0187 117.582 7.95837C123.007 3.89809 129.604 1.26552 136.627 0.358021C143.649 -0.549476 150.818 0.304251 157.323 2.82278C163.827 5.34131 169.409 9.42424 173.438 14.6105L173.434 14.6078Z" fill="white"/>
</g>
</g>
<g filter="url(#filter0_b_0_1)">
<path d="M3.568 106.968H11.656V109.992H3.568V106.968ZM3.856 113.88H13V117H-0.0079999V100.2H12.688V103.32H3.856V113.88ZM14.0569 117L19.8409 109.416L19.7689 111.48L14.2249 104.088H18.4249L21.9289 108.912L20.3449 108.96L23.9689 104.088H27.9529L22.3849 111.408V109.392L28.1449 117H23.8969L20.2249 111.864L21.7849 112.08L18.1369 117H14.0569ZM37.5944 117.192C36.5064 117.192 35.5544 116.952 34.7384 116.472C33.9224 115.992 33.2824 115.264 32.8184 114.288C32.3704 113.296 32.1464 112.048 32.1464 110.544C32.1464 109.024 32.3624 107.776 32.7944 106.8C33.2264 105.824 33.8504 105.096 34.6664 104.616C35.4824 104.136 36.4584 103.896 37.5944 103.896C38.8104 103.896 39.8984 104.176 40.8584 104.736C41.8344 105.28 42.6024 106.048 43.1624 107.04C43.7384 108.032 44.0264 109.2 44.0264 110.544C44.0264 111.904 43.7384 113.08 43.1624 114.072C42.6024 115.064 41.8344 115.832 40.8584 116.376C39.8984 116.92 38.8104 117.192 37.5944 117.192ZM29.9624 121.656V104.088H33.5384V106.728L33.4664 110.568L33.7064 114.384V121.656H29.9624ZM36.9464 114.12C37.5704 114.12 38.1224 113.976 38.6024 113.688C39.0984 113.4 39.4904 112.992 39.7784 112.464C40.0824 111.92 40.2344 111.28 40.2344 110.544C40.2344 109.792 40.0824 109.152 39.7784 108.624C39.4904 108.096 39.0984 107.688 38.6024 107.4C38.1224 107.112 37.5704 106.968 36.9464 106.968C36.3224 106.968 35.7624 107.112 35.2664 107.4C34.7704 107.688 34.3784 108.096 34.0904 108.624C33.8024 109.152 33.6584 109.792 33.6584 110.544C33.6584 111.28 33.8024 111.92 34.0904 112.464C34.3784 112.992 34.7704 113.4 35.2664 113.688C35.7624 113.976 36.3224 114.12 36.9464 114.12ZM52.9407 117.192C51.4687 117.192 50.1727 116.904 49.0527 116.328C47.9487 115.752 47.0927 114.968 46.4847 113.976C45.8767 112.968 45.5727 111.824 45.5727 110.544C45.5727 109.248 45.8687 108.104 46.4607 107.112C47.0687 106.104 47.8927 105.32 48.9327 104.76C49.9727 104.184 51.1487 103.896 52.4607 103.896C53.7247 103.896 54.8607 104.168 55.8687 104.712C56.8927 105.24 57.7007 106.008 58.2927 107.016C58.8847 108.008 59.1807 109.2 59.1807 110.592C59.1807 110.736 59.1727 110.904 59.1567 111.096C59.1407 111.272 59.1247 111.44 59.1087 111.6H48.6207V109.416H57.1407L55.7007 110.064C55.7007 109.392 55.5647 108.808 55.2927 108.312C55.0207 107.816 54.6447 107.432 54.1647 107.16C53.6847 106.872 53.1247 106.728 52.4847 106.728C51.8447 106.728 51.2767 106.872 50.7807 107.16C50.3007 107.432 49.9247 107.824 49.6527 108.336C49.3807 108.832 49.2447 109.424 49.2447 110.112V110.688C49.2447 111.392 49.3967 112.016 49.7007 112.56C50.0207 113.088 50.4607 113.496 51.0207 113.784C51.5967 114.056 52.2687 114.192 53.0367 114.192C53.7247 114.192 54.3247 114.088 54.8367 113.88C55.3647 113.672 55.8447 113.36 56.2767 112.944L58.2687 115.104C57.6767 115.776 56.9327 116.296 56.0367 116.664C55.1407 117.016 54.1087 117.192 52.9407 117.192ZM69.5213 103.896C70.5453 103.896 71.4573 104.104 72.2573 104.52C73.0733 104.92 73.7133 105.544 74.1773 106.392C74.6413 107.224 74.8733 108.296 74.8733 109.608V117H71.1293V110.184C71.1293 109.144 70.8973 108.376 70.4333 107.88C69.9853 107.384 69.3453 107.136 68.5133 107.136C67.9213 107.136 67.3853 107.264 66.9053 107.52C66.4413 107.76 66.0733 108.136 65.8013 108.648C65.5453 109.16 65.4173 109.816 65.4173 110.616V117H61.6733V104.088H65.2493V107.664L64.5773 106.584C65.0413 105.72 65.7053 105.056 66.5693 104.592C67.4333 104.128 68.4173 103.896 69.5213 103.896ZM82.6111 117.192C81.5071 117.192 80.4431 117.064 79.4191 116.808C78.4111 116.536 77.6111 116.2 77.0191 115.8L78.2671 113.112C78.8591 113.48 79.5551 113.784 80.3551 114.024C81.1711 114.248 81.9711 114.36 82.7551 114.36C83.6191 114.36 84.2271 114.256 84.5791 114.048C84.9471 113.84 85.1311 113.552 85.1311 113.184C85.1311 112.88 84.9871 112.656 84.6991 112.512C84.4271 112.352 84.0591 112.232 83.5951 112.152C83.1311 112.072 82.6191 111.992 82.0591 111.912C81.5151 111.832 80.9631 111.728 80.4031 111.6C79.8431 111.456 79.3311 111.248 78.8671 110.976C78.4031 110.704 78.0271 110.336 77.7391 109.872C77.4671 109.408 77.3311 108.808 77.3311 108.072C77.3311 107.256 77.5631 106.536 78.0271 105.912C78.5071 105.288 79.1951 104.8 80.0911 104.448C80.9871 104.08 82.0591 103.896 83.3071 103.896C84.1871 103.896 85.0831 103.992 85.9951 104.184C86.9071 104.376 87.6671 104.656 88.2751 105.024L87.0271 107.688C86.4031 107.32 85.7711 107.072 85.1311 106.944C84.5071 106.8 83.8991 106.728 83.3071 106.728C82.4751 106.728 81.8671 106.84 81.4831 107.064C81.0991 107.288 80.9071 107.576 80.9071 107.928C80.9071 108.248 81.0431 108.488 81.3151 108.648C81.6031 108.808 81.9791 108.936 82.4431 109.032C82.9071 109.128 83.4111 109.216 83.9551 109.296C84.5151 109.36 85.0751 109.464 85.6351 109.608C86.1951 109.752 86.6991 109.96 87.1471 110.232C87.6111 110.488 87.9871 110.848 88.2751 111.312C88.5631 111.76 88.7071 112.352 88.7071 113.088C88.7071 113.888 88.4671 114.6 87.9871 115.224C87.5071 115.832 86.8111 116.312 85.8991 116.664C85.0031 117.016 83.9071 117.192 82.6111 117.192ZM97.4251 117.192C95.9531 117.192 94.6571 116.904 93.5371 116.328C92.4331 115.752 91.5771 114.968 90.9691 113.976C90.3611 112.968 90.0571 111.824 90.0571 110.544C90.0571 109.248 90.3531 108.104 90.9451 107.112C91.5531 106.104 92.3771 105.32 93.4171 104.76C94.4571 104.184 95.6331 103.896 96.9451 103.896C98.2091 103.896 99.3451 104.168 100.353 104.712C101.377 105.24 102.185 106.008 102.777 107.016C103.369 108.008 103.665 109.2 103.665 110.592C103.665 110.736 103.657 110.904 103.641 111.096C103.625 111.272 103.609 111.44 103.593 111.6H93.1051V109.416H101.625L100.185 110.064C100.185 109.392 100.049 108.808 99.7771 108.312C99.5051 107.816 99.1291 107.432 98.6491 107.16C98.1691 106.872 97.6091 106.728 96.9691 106.728C96.3291 106.728 95.7611 106.872 95.2651 107.16C94.7851 107.432 94.4091 107.824 94.1371 108.336C93.8651 108.832 93.7291 109.424 93.7291 110.112V110.688C93.7291 111.392 93.8811 112.016 94.1851 112.56C94.5051 113.088 94.9451 113.496 95.5051 113.784C96.0811 114.056 96.7531 114.192 97.5211 114.192C98.2091 114.192 98.8091 114.088 99.3211 113.88C99.8491 113.672 100.329 113.36 100.761 112.944L102.753 115.104C102.161 115.776 101.417 116.296 100.521 116.664C99.6251 117.016 98.5931 117.192 97.4251 117.192ZM113.219 117V100.2H116.435L123.587 112.056H121.883L128.915 100.2H132.107L132.155 117H128.507L128.483 105.792H129.155L123.539 115.224H121.787L116.051 105.792H116.867V117H113.219ZM143.796 117V114.48L143.556 113.928V109.416C143.556 108.616 143.308 107.992 142.812 107.544C142.332 107.096 141.588 106.872 140.58 106.872C139.892 106.872 139.212 106.984 138.54 107.208C137.884 107.416 137.324 107.704 136.86 108.072L135.516 105.456C136.22 104.96 137.068 104.576 138.06 104.304C139.052 104.032 140.06 103.896 141.084 103.896C143.052 103.896 144.58 104.36 145.668 105.288C146.756 106.216 147.3 107.664 147.3 109.632V117H143.796ZM139.86 117.192C138.852 117.192 137.988 117.024 137.268 116.688C136.548 116.336 135.996 115.864 135.612 115.272C135.228 114.68 135.036 114.016 135.036 113.28C135.036 112.512 135.22 111.84 135.588 111.264C135.972 110.688 136.572 110.24 137.388 109.92C138.204 109.584 139.268 109.416 140.58 109.416H144.012V111.6H140.988C140.108 111.6 139.5 111.744 139.164 112.032C138.844 112.32 138.684 112.68 138.684 113.112C138.684 113.592 138.868 113.976 139.236 114.264C139.62 114.536 140.14 114.672 140.796 114.672C141.42 114.672 141.98 114.528 142.476 114.24C142.972 113.936 143.332 113.496 143.556 112.92L144.132 114.648C143.86 115.48 143.364 116.112 142.644 116.544C141.924 116.976 140.996 117.192 139.86 117.192ZM158.537 103.896C159.561 103.896 160.473 104.104 161.273 104.52C162.089 104.92 162.729 105.544 163.193 106.392C163.657 107.224 163.889 108.296 163.889 109.608V117H160.145V110.184C160.145 109.144 159.913 108.376 159.449 107.88C159.001 107.384 158.361 107.136 157.529 107.136C156.937 107.136 156.401 107.264 155.921 107.52C155.457 107.76 155.089 108.136 154.817 108.648C154.561 109.16 154.433 109.816 154.433 110.616V117H150.689V104.088H154.265V107.664L153.593 106.584C154.057 105.72 154.721 105.056 155.585 104.592C156.449 104.128 157.433 103.896 158.537 103.896ZM175.203 117V114.48L174.963 113.928V109.416C174.963 108.616 174.715 107.992 174.219 107.544C173.739 107.096 172.995 106.872 171.987 106.872C171.299 106.872 170.619 106.984 169.947 107.208C169.291 107.416 168.731 107.704 168.267 108.072L166.923 105.456C167.627 104.96 168.475 104.576 169.467 104.304C170.459 104.032 171.467 103.896 172.491 103.896C174.459 103.896 175.987 104.36 177.075 105.288C178.163 106.216 178.707 107.664 178.707 109.632V117H175.203ZM171.267 117.192C170.259 117.192 169.395 117.024 168.675 116.688C167.955 116.336 167.403 115.864 167.019 115.272C166.635 114.68 166.443 114.016 166.443 113.28C166.443 112.512 166.627 111.84 166.995 111.264C167.379 110.688 167.979 110.24 168.795 109.92C169.611 109.584 170.675 109.416 171.987 109.416H175.419V111.6H172.395C171.515 111.6 170.907 111.744 170.571 112.032C170.251 112.32 170.091 112.68 170.091 113.112C170.091 113.592 170.275 113.976 170.643 114.264C171.027 114.536 171.547 114.672 172.203 114.672C172.827 114.672 173.387 114.528 173.883 114.24C174.379 113.936 174.739 113.496 174.963 112.92L175.539 114.648C175.267 115.48 174.771 116.112 174.051 116.544C173.331 116.976 172.403 117.192 171.267 117.192ZM188.261 121.848C187.045 121.848 185.869 121.696 184.733 121.392C183.613 121.104 182.677 120.664 181.925 120.072L183.413 117.384C183.957 117.832 184.645 118.184 185.477 118.44C186.325 118.712 187.157 118.848 187.973 118.848C189.301 118.848 190.261 118.552 190.853 117.96C191.461 117.368 191.765 116.488 191.765 115.32V113.376L192.005 110.136L191.957 106.872V104.088H195.509V114.84C195.509 117.24 194.885 119.008 193.637 120.144C192.389 121.28 190.597 121.848 188.261 121.848ZM187.685 116.376C186.485 116.376 185.397 116.12 184.421 115.608C183.461 115.08 182.685 114.352 182.093 113.424C181.517 112.48 181.229 111.384 181.229 110.136C181.229 108.872 181.517 107.776 182.093 106.848C182.685 105.904 183.461 105.176 184.421 104.664C185.397 104.152 186.485 103.896 187.685 103.896C188.773 103.896 189.733 104.12 190.565 104.568C191.397 105 192.045 105.68 192.509 106.608C192.973 107.52 193.205 108.696 193.205 110.136C193.205 111.56 192.973 112.736 192.509 113.664C192.045 114.576 191.397 115.256 190.565 115.704C189.733 116.152 188.773 116.376 187.685 116.376ZM188.429 113.304C189.085 113.304 189.669 113.176 190.181 112.92C190.693 112.648 191.093 112.272 191.381 111.792C191.669 111.312 191.813 110.76 191.813 110.136C191.813 109.496 191.669 108.944 191.381 108.48C191.093 108 190.693 107.632 190.181 107.376C189.669 107.104 189.085 106.968 188.429 106.968C187.773 106.968 187.189 107.104 186.677 107.376C186.165 107.632 185.757 108 185.453 108.48C185.165 108.944 185.021 109.496 185.021 110.136C185.021 110.76 185.165 111.312 185.453 111.792C185.757 112.272 186.165 112.648 186.677 112.92C187.189 113.176 187.773 113.304 188.429 113.304ZM205.402 117.192C203.93 117.192 202.634 116.904 201.514 116.328C200.41 115.752 199.554 114.968 198.946 113.976C198.338 112.968 198.034 111.824 198.034 110.544C198.034 109.248 198.33 108.104 198.922 107.112C199.53 106.104 200.354 105.32 201.394 104.76C202.434 104.184 203.61 103.896 204.922 103.896C206.186 103.896 207.322 104.168 208.33 104.712C209.354 105.24 210.162 106.008 210.754 107.016C211.346 108.008 211.642 109.2 211.642 110.592C211.642 110.736 211.634 110.904 211.618 111.096C211.602 111.272 211.586 111.44 211.57 111.6H201.082V109.416H209.602L208.162 110.064C208.162 109.392 208.026 108.808 207.754 108.312C207.482 107.816 207.106 107.432 206.626 107.16C206.146 106.872 205.586 106.728 204.946 106.728C204.306 106.728 203.738 106.872 203.242 107.16C202.762 107.432 202.386 107.824 202.114 108.336C201.842 108.832 201.706 109.424 201.706 110.112V110.688C201.706 111.392 201.858 112.016 202.162 112.56C202.482 113.088 202.922 113.496 203.482 113.784C204.058 114.056 204.73 114.192 205.498 114.192C206.186 114.192 206.786 114.088 207.298 113.88C207.826 113.672 208.306 113.36 208.738 112.944L210.73 115.104C210.138 115.776 209.394 116.296 208.498 116.664C207.602 117.016 206.57 117.192 205.402 117.192ZM230.67 103.896C231.694 103.896 232.598 104.104 233.382 104.52C234.182 104.92 234.806 105.544 235.254 106.392C235.718 107.224 235.95 108.296 235.95 109.608V117H232.206V110.184C232.206 109.144 231.99 108.376 231.558 107.88C231.126 107.384 230.518 107.136 229.734 107.136C229.19 107.136 228.702 107.264 228.27 107.52C227.838 107.76 227.502 108.128 227.262 108.624C227.022 109.12 226.902 109.752 226.902 110.52V117H223.158V110.184C223.158 109.144 222.942 108.376 222.51 107.88C222.094 107.384 221.494 107.136 220.71 107.136C220.166 107.136 219.678 107.264 219.246 107.52C218.814 107.76 218.478 108.128 218.238 108.624C217.998 109.12 217.878 109.752 217.878 110.52V117H214.134V104.088H217.71V107.616L217.038 106.584C217.486 105.704 218.118 105.04 218.934 104.592C219.766 104.128 220.71 103.896 221.766 103.896C222.95 103.896 223.982 104.2 224.862 104.808C225.758 105.4 226.35 106.312 226.638 107.544L225.318 107.184C225.75 106.176 226.438 105.376 227.382 104.784C228.342 104.192 229.438 103.896 230.67 103.896ZM245.808 117.192C244.336 117.192 243.04 116.904 241.92 116.328C240.816 115.752 239.96 114.968 239.352 113.976C238.744 112.968 238.44 111.824 238.44 110.544C238.44 109.248 238.736 108.104 239.328 107.112C239.936 106.104 240.76 105.32 241.8 104.76C242.84 104.184 244.016 103.896 245.328 103.896C246.592 103.896 247.728 104.168 248.736 104.712C249.76 105.24 250.568 106.008 251.16 107.016C251.752 108.008 252.048 109.2 252.048 110.592C252.048 110.736 252.04 110.904 252.024 111.096C252.008 111.272 251.992 111.44 251.976 111.6H241.488V109.416H250.008L248.568 110.064C248.568 109.392 248.432 108.808 248.16 108.312C247.888 107.816 247.512 107.432 247.032 107.16C246.552 106.872 245.992 106.728 245.352 106.728C244.712 106.728 244.144 106.872 243.648 107.16C243.168 107.432 242.792 107.824 242.52 108.336C242.248 108.832 242.112 109.424 242.112 110.112V110.688C242.112 111.392 242.264 112.016 242.568 112.56C242.888 113.088 243.328 113.496 243.888 113.784C244.464 114.056 245.136 114.192 245.904 114.192C246.592 114.192 247.192 114.088 247.704 113.88C248.232 113.672 248.712 113.36 249.144 112.944L251.136 115.104C250.544 115.776 249.8 116.296 248.904 116.664C248.008 117.016 246.976 117.192 245.808 117.192ZM262.389 103.896C263.413 103.896 264.325 104.104 265.125 104.52C265.941 104.92 266.581 105.544 267.045 106.392C267.509 107.224 267.741 108.296 267.741 109.608V117H263.997V110.184C263.997 109.144 263.765 108.376 263.301 107.88C262.853 107.384 262.213 107.136 261.381 107.136C260.789 107.136 260.253 107.264 259.773 107.52C259.309 107.76 258.941 108.136 258.669 108.648C258.413 109.16 258.285 109.816 258.285 110.616V117H254.541V104.088H258.117V107.664L257.445 106.584C257.909 105.72 258.573 105.056 259.437 104.592C260.301 104.128 261.285 103.896 262.389 103.896ZM276.414 117.192C274.894 117.192 273.71 116.808 272.862 116.04C272.014 115.256 271.59 114.096 271.59 112.56V101.232H275.334V112.512C275.334 113.056 275.478 113.48 275.766 113.784C276.054 114.072 276.446 114.216 276.942 114.216C277.534 114.216 278.038 114.056 278.454 113.736L279.462 116.376C279.078 116.648 278.614 116.856 278.07 117C277.542 117.128 276.99 117.192 276.414 117.192ZM269.598 107.256V104.376H278.55V107.256H269.598Z" fill="url(#paint2_linear_0_1)"/>
</g>
<defs>
<filter id="filter0_b_0_1" x="-4.008" y="96.2" width="287.47" height="29.648" filterUnits="userSpaceOnUse" color-interpolation-filters="sRGB">
<feFlood flood-opacity="0" result="BackgroundImageFix"/>
<feGaussianBlur in="BackgroundImageFix" stdDeviation="2"/>
<feComposite in2="SourceAlpha" operator="in" result="effect1_backgroundBlur_0_1"/>
<feBlend mode="normal" in="SourceGraphic" in2="effect1_backgroundBlur_0_1" result="shape"/>
</filter>
<linearGradient id="paint0_linear_0_1" x1="121.013" y1="72.3245" x2="142.163" y2="17.2539" gradientUnits="userSpaceOnUse">
<stop stop-color="#1D71B9"/>
<stop offset="1" stop-color="#1D71B9" stop-opacity="0.8"/>
</linearGradient>
<linearGradient id="paint1_linear_0_1" x1="146.224" y1="4.18595" x2="134.633" y2="54.3434" gradientUnits="userSpaceOnUse">
<stop stop-color="#5BC78B"/>
<stop offset="0.27" stop-color="#3AB671" stop-opacity="0.946"/>
<stop offset="0.52" stop-color="#45BC7A" stop-opacity="0.896"/>
<stop offset="1" stop-color="#5BC78B" stop-opacity="0.8"/>
</linearGradient>
<linearGradient id="paint2_linear_0_1" x1="-2" y1="122.5" x2="282" y2="122.5" gradientUnits="userSpaceOnUse">
<stop stop-color="#33312E"/>
<stop offset="0.4" stop-color="#33312E" stop-opacity="0.8"/>
<stop offset="1" stop-color="#33312E"/>
</linearGradient>
</defs>
</svg>
